<svg id="Layer_1" data-name="Layer 1" xmlns="http://www.w3.org/2000/svg" viewBox="0 0 372.78 521.03"><defs><style>.cls-1{fill:#2f3f50;}.cls-2{fill:#313f51;}</style></defs><path class="cls-1" d="M320.69,248.89c55.22,43.6,82.52,129.61,31.76,201-30.85,43.37-74.54,67-126.17,74.9-79.13,12.1-148.82-7.44-205-66.88C7.28,443,7.5,442.8,22,428.28c19.26-19.34,38.64-38.57,57.72-58.09,4.13-4.23,6.3-4.47,10.83,0,44.75,44.28,98.24,53.47,153.68,26.18,6.34-3.12,8.73-.87,10.53,3.69,4.12,10.47,11.75,12.72,22.12,11.91a238.61,238.61,0,0,1,32.31-.07c8.17.48,11-1.57,10.87-10.48-.52-47.41-.3-94.83-.2-142.24C319.83,255.83,318.56,252.21,320.69,248.89Z" transform="translate(-6.5 -7.12)"/><path class="cls-1" d="M50.18,246.77c-67.66-63.08-54.9-162,25.7-209.59,82.93-49,196.56-37.06,267.57,28,22,20.13,21.92,20.07,1.18,40.63q-27.92,27.69-55.56,55.65c-3.38,3.41-5.29,5.38-9.92.57C243.29,124.79,199.77,110.34,149.8,125,96.47,140.62,66.12,179.12,53,232.14,52,236.57,51.28,241.11,50.18,246.77Z" transform="translate(-6.5 -7.12)"/><path class="cls-2" d="M249.76,265.35c.07,16.64-4.2,32.08-14.65,45.11-16.91,21.09-38.74,30.87-65.6,23.78-28.68-7.59-44.42-28-49.36-56.42-5.7-32.83,11.36-65.38,39.46-77.54C203.06,181.48,249.62,215.1,249.76,265.35Z" transform="translate(-6.5 -7.12)"/></svg>