<svg xmlns="http://www.w3.org/2000/svg" width="126.38" height="176.667" viewBox="0 0 126.38 176.667"><g transform="translate(-0.001 0.018)"><path d="M115.959,248.89c18.721,14.781,27.976,43.941,10.767,68.144-10.459,14.7-25.271,22.715-42.775,25.393-26.827,4.1-50.454-2.522-69.5-22.674-4.746-5.055-4.672-5.123.244-10.045,6.53-6.557,13.1-13.076,19.568-19.694,1.4-1.434,2.136-1.515,3.672,0,15.171,15.012,33.306,18.128,52.1,8.876,2.149-1.058,2.96-.295,3.57,1.251,1.4,3.55,3.984,4.312,7.5,4.038a80.893,80.893,0,0,1,10.954-.024c2.77.163,3.729-.532,3.685-3.553-.176-16.073-.1-32.15-.068-48.223C115.668,251.243,115.237,250.016,115.959,248.89Z" transform="translate(-9.441 -166.936)" fill="#fff"/><path d="M21.309,88.355C-1.629,66.969,2.7,33.433,30.022,17.3,58.137.687,96.661,4.735,120.735,26.792c7.459,6.825,7.431,6.8.4,13.775q-9.466,9.388-18.836,18.867c-1.146,1.156-1.793,1.824-3.363.193C86.778,47,72.024,42.1,55.083,47.072,37,52.368,26.713,65.42,22.265,83.4,21.926,84.9,21.682,86.436,21.309,88.355Z" transform="translate(-6.5 -7.12)" fill="#fff"/><path d="M163.367,218.847a23.567,23.567,0,0,1-4.967,15.293c-5.733,7.15-13.134,10.466-22.24,8.062-9.723-2.573-15.059-9.493-16.734-19.128-1.932-11.13,3.851-22.165,13.378-26.288C147.535,190.413,163.32,201.811,163.367,218.847Z" transform="translate(-80.896 -131.313)" fill="#fff"/></g></svg>